<svg xmlns="http://www.w3.org/2000/svg" width="735" height="923" viewBox="0 0 735 923"><defs>
<linearGradient id="bar" x1="0" x2="1"><stop offset="0" stop-color="#f6ec86"/><stop offset="1" stop-color="#ead9a2"/></linearGradient></defs>
<rect width="735" height="923" fill="#f4f2f7"/>
<rect x="0" y="0" width="735" height="44" fill="url(#bar)" stroke="#2b2a2e" stroke-width="2"/>
<g font-family="Courier New,monospace" font-size="22" font-weight="700" fill="#2b2a2e"><text x="12" y="80"><tspan text-decoration="underline">F</tspan>ile</text><text x="88" y="80"><tspan text-decoration="underline">E</tspan>dit</text><text x="168" y="80"><tspan text-decoration="underline">V</tspan>iew</text><text x="248" y="80"><tspan text-decoration="underline">I</tspan>mage</text><text x="342" y="80"><tspan text-decoration="underline">H</tspan>elp</text></g>
<rect x="38" y="100" width="108" height="352" fill="#ffffff" stroke="#2b2a2e" stroke-width="2"/><g transform="translate(46 110)"><rect width="44" height="44" fill="#ffffff" stroke="#2b2a2e" stroke-width="2"/><path d="M10 6 L10 30 L16 24 L22 34 L26 32 L20 22 L28 22Z" transform="translate(2 2)" fill="none" stroke="#2b2a2e" stroke-width="2.2" stroke-linejoin="round"/></g><g transform="translate(94 110)"><rect width="44" height="44" fill="#ffffff" stroke="#2b2a2e" stroke-width="2"/><path d="M8 8h24v24h-24z" transform="translate(2 2)" fill="none" stroke="#2b2a2e" stroke-width="2.2" stroke-linejoin="round"/></g><g transform="translate(46 158)"><rect width="44" height="44" fill="#ffffff" stroke="#2b2a2e" stroke-width="2"/><path d="M20 6v28M6 20h28" transform="translate(2 2)" fill="none" stroke="#2b2a2e" stroke-width="2.2" stroke-linejoin="round"/></g><g transform="translate(94 158)"><rect width="44" height="44" fill="#ffffff" stroke="#2b2a2e" stroke-width="2"/><path d="M10 10h20M20 10v22" transform="translate(2 2)" fill="none" stroke="#2b2a2e" stroke-width="2.2" stroke-linejoin="round"/></g><g transform="translate(46 206)"><rect width="44" height="44" fill="#ffffff" stroke="#2b2a2e" stroke-width="2"/><path d="M20 6 L24 16 L34 17 L26 23 L29 33 L20 27 L11 33 L14 23 L6 17 L16 16Z" transform="translate(2 2)" fill="none" stroke="#2b2a2e" stroke-width="2.2" stroke-linejoin="round"/></g><g transform="translate(94 206)"><rect width="44" height="44" fill="#ffffff" stroke="#2b2a2e" stroke-width="2"/><path d="M14 6h12v12h-12zM20 18v16" transform="translate(2 2)" fill="none" stroke="#2b2a2e" stroke-width="2.2" stroke-linejoin="round"/></g><g transform="translate(46 254)"><rect width="44" height="44" fill="#f2a3bb" stroke="#2b2a2e" stroke-width="2"/><path d="M8 30 L28 10 L32 14 L12 34Z" transform="translate(2 2)" fill="none" stroke="#2b2a2e" stroke-width="2.2" stroke-linejoin="round"/></g><g transform="translate(94 254)"><rect width="44" height="44" fill="#ffffff" stroke="#2b2a2e" stroke-width="2"/><path d="M14 12a8 8 0 1 0 0.1 0M22 22 L32 32" transform="translate(2 2)" fill="none" stroke="#2b2a2e" stroke-width="2.2" stroke-linejoin="round"/></g><g transform="translate(46 302)"><rect width="44" height="44" fill="#ffffff" stroke="#2b2a2e" stroke-width="2"/><path d="M10 24h20v8h-20zM16 12 L26 24" transform="translate(2 2)" fill="none" stroke="#2b2a2e" stroke-width="2.2" stroke-linejoin="round"/></g><g transform="translate(94 302)"><rect width="44" height="44" fill="#ffffff" stroke="#2b2a2e" stroke-width="2"/><path d="M8 32 L32 8" transform="translate(2 2)" fill="none" stroke="#2b2a2e" stroke-width="2.2" stroke-linejoin="round"/></g><g transform="translate(46 350)"><rect width="44" height="44" fill="#ffffff" stroke="#2b2a2e" stroke-width="2"/><path d="M8 10h24v20h-24z" transform="translate(2 2)" fill="none" stroke="#2b2a2e" stroke-width="2.2" stroke-linejoin="round"/></g><g transform="translate(94 350)"><rect width="44" height="44" fill="#ffffff" stroke="#2b2a2e" stroke-width="2"/><path d="M8 14q0-6 6-6h12q6 0 6 6v12q0 6-6 6h-12q-6 0-6-6z" transform="translate(2 2)" fill="none" stroke="#2b2a2e" stroke-width="2.2" stroke-linejoin="round"/></g><g transform="translate(46 398)"><rect width="44" height="44" fill="#ffffff" stroke="#2b2a2e" stroke-width="2"/><path d="M6 20a14 10 0 1 0 28 0a14 10 0 1 0 -28 0" transform="translate(2 2)" fill="none" stroke="#2b2a2e" stroke-width="2.2" stroke-linejoin="round"/></g><g transform="translate(94 398)"><rect width="44" height="44" fill="#ffffff" stroke="#2b2a2e" stroke-width="2"/><path d="M8 32V8h12v12h12v12z" transform="translate(2 2)" fill="none" stroke="#2b2a2e" stroke-width="2.2" stroke-linejoin="round"/></g>
<rect x="52" y="500" width="80" height="210" fill="#f6e98a" stroke="#2b2a2e" stroke-width="2"/>
<rect x="150" y="100" width="585" height="610" fill="#ffffff" stroke="#2b2a2e" stroke-width="2"/>
<rect x="412" y="191" width="135" height="135" rx="12" fill="#e9e6f8" stroke="#a9a3d6" stroke-width="2"/><rect x="412" y="351" width="135" height="135" rx="12" fill="#e9e6f8" stroke="#a9a3d6" stroke-width="2"/><rect x="412" y="511" width="135" height="135" rx="12" fill="#e9e6f8" stroke="#a9a3d6" stroke-width="2"/><rect x="568" y="191" width="135" height="135" rx="12" fill="#e9e6f8" stroke="#a9a3d6" stroke-width="2"/><rect x="568" y="351" width="135" height="135" rx="12" fill="#e9e6f8" stroke="#a9a3d6" stroke-width="2"/><rect x="568" y="511" width="135" height="135" rx="12" fill="#e9e6f8" stroke="#a9a3d6" stroke-width="2"/>
<rect x="150" y="710" width="585" height="26" fill="#f4f2f7" stroke="#2b2a2e" stroke-width="2"/><rect x="176" y="714" width="240" height="18" fill="#e9d9a8" stroke="#2b2a2e" stroke-width="1.5"/><path d="M158 723 L170 715 L170 731Z" fill="#2b2a2e"/>
<rect x="50" y="776" width="92" height="92" fill="#ffffff" stroke="#2b2a2e" stroke-width="2"/><rect x="62" y="788" width="44" height="44" fill="#2b2a2e"/><rect x="86" y="812" width="44" height="44" fill="#ffffff" stroke="#2b2a2e" stroke-width="2"/>
<rect x="160" y="786" width="26" height="26" fill="#f08aa8" stroke="#2b2a2e" stroke-width="1.6"/><rect x="190" y="786" width="26" height="26" fill="#ffffff" stroke="#2b2a2e" stroke-width="1.6"/><rect x="220" y="786" width="26" height="26" fill="#f5e66b" stroke="#2b2a2e" stroke-width="1.6"/><rect x="250" y="786" width="26" height="26" fill="#d7b7e8" stroke="#2b2a2e" stroke-width="1.6"/><rect x="280" y="786" width="26" height="26" fill="#f08aa8" stroke="#2b2a2e" stroke-width="1.6"/><rect x="310" y="786" width="26" height="26" fill="#ffffff" stroke="#2b2a2e" stroke-width="1.6"/><rect x="340" y="786" width="26" height="26" fill="#2b2a2e" stroke="#2b2a2e" stroke-width="1.6"/><rect x="370" y="786" width="26" height="26" fill="#ffffff" stroke="#2b2a2e" stroke-width="1.6"/><rect x="160" y="816" width="26" height="26" fill="#2b2a2e" stroke="#2b2a2e" stroke-width="1.6"/><rect x="190" y="816" width="26" height="26" fill="#d7b7e8" stroke="#2b2a2e" stroke-width="1.6"/><rect x="220" y="816" width="26" height="26" fill="#f08aa8" stroke="#2b2a2e" stroke-width="1.6"/><rect x="250" y="816" width="26" height="26" fill="#ffffff" stroke="#2b2a2e" stroke-width="1.6"/><rect x="280" y="816" width="26" height="26" fill="#f5e66b" stroke="#2b2a2e" stroke-width="1.6"/><rect x="310" y="816" width="26" height="26" fill="#ffffff" stroke="#2b2a2e" stroke-width="1.6"/><rect x="340" y="816" width="26" height="26" fill="#2b2a2e" stroke="#2b2a2e" stroke-width="1.6"/><rect x="370" y="816" width="26" height="26" fill="#d7b7e8" stroke="#2b2a2e" stroke-width="1.6"/>
</svg>